<?xml version="1.0" encoding="UTF-8"?>
<!-- Generator: Adobe Illustrator 27.3.0, SVG Export Plug-In . SVG Version: 6.00 Build 0)  -->
<svg xmlns="http://www.w3.org/2000/svg" xmlns:xlink="http://www.w3.org/1999/xlink" version="1.1" id="Camada_1" x="0px" y="0px" viewBox="0 0 33 33" style="enable-background:new 0 0 33 33;" xml:space="preserve">
<style type="text/css">
	.st0{fill-rule:evenodd;clip-rule:evenodd;fill:#666666;}
</style>
<g>
	<path class="st0" d="M23.6,11.4l0,12.3H9.4l0-12.3H5.2V4h22.6v7.4H23.6L23.6,11.4z M20.4,5.2C20.2,7.3,18.5,9,16.5,9   s-3.7-1.7-3.9-3.8H12h-1.4H6.4v5h4.2l0,12.2h11.8l0-12.2h4.2v-5h-4.2H21H20.4L20.4,5.2z M13.5,5.2C13.7,6.7,15,8,16.5,8   s2.8-1.2,3-2.8H13.5L13.5,5.2z"></path>
	<path class="st0" d="M6.2,25l3.1,1.1c0,0,0,0,0.1,0l8.4,2.9c2.9,0,2.6-3.5,1.5-4l-1.3,0.6l-3.1-2.4c-1-0.4-0.5-4,1-4.2l3,0.1   l-1-2.2l2.7-1.1l-8.1-1.6c-0.4-0.1-0.8-0.1-1.2-0.1c-3.3,0-6.1,2.7-6.1,6.1C5.2,21.6,5.9,23.7,6.2,25L6.2,25z"></path>
</g>
</svg>
