<?xml version="1.0" encoding="UTF-8"?>
<!-- Generator: Adobe Illustrator 27.3.0, SVG Export Plug-In . SVG Version: 6.00 Build 0)  -->
<svg xmlns="http://www.w3.org/2000/svg" xmlns:xlink="http://www.w3.org/1999/xlink" version="1.1" id="Camada_1" x="0px" y="0px" viewBox="0 0 33 33" style="enable-background:new 0 0 33 33;" xml:space="preserve">
<style type="text/css">
	.st0{fill-rule:evenodd;clip-rule:evenodd;fill:#666666;}
</style>
<path class="st0" d="M24.4,15.3V26c0,1.4-1.2,2.6-2.6,2.6H11.2c-1.4,0-2.6-1.2-2.6-2.6V15.3c0-0.5,0.2-0.9,0.3-1.3l2.8-7.7  c0.3-0.9,0.6-1.9,1.4-1.9h6.7c0.8,0,1.1,0.9,1.4,1.9l2.8,7.7C24.2,14.4,24.4,14.9,24.4,15.3L24.4,15.3z M16.5,6.5  c0.7,0,1.2,0.5,1.2,1.2s-0.5,1.2-1.2,1.2c-0.7,0-1.2-0.5-1.2-1.2S15.8,6.5,16.5,6.5L16.5,6.5z M20.3,15.5c-0.8-0.5-1.7-0.9-2.8-1  v-0.8h-1.4v0.8c-2,0.1-3.2,1.2-3.2,2.8v0c0,1.7,1.1,2.4,3.2,2.9v1.6c-0.8-0.1-1.6-0.5-2.5-1.1l-1.2,1.8c1,0.7,2.3,1.2,3.6,1.3v1.3  h1.4v-1.3c1.9-0.2,3.2-1.2,3.2-2.8v0c0-1.6-1.1-2.4-3.2-2.9v-1.6c0.6,0.1,1.2,0.4,1.8,0.8L20.3,15.5L20.3,15.5z M18.3,21.1  L18.3,21.1c0,0.4-0.3,0.7-0.9,0.7v-1.5C18.1,20.5,18.3,20.7,18.3,21.1L18.3,21.1z M15.2,17L15.2,17c0-0.4,0.2-0.6,0.9-0.7v1.4  C15.4,17.6,15.2,17.4,15.2,17L15.2,17z"></path>
</svg>
