<?xml version="1.0" encoding="UTF-8"?>
<!-- Generator: Adobe Illustrator 27.3.0, SVG Export Plug-In . SVG Version: 6.00 Build 0)  -->
<svg xmlns="http://www.w3.org/2000/svg" xmlns:xlink="http://www.w3.org/1999/xlink" version="1.1" id="Camada_1" x="0px" y="0px" viewBox="0 0 33 33" style="enable-background:new 0 0 33 33;" xml:space="preserve">
<style type="text/css">
	.st0{fill-rule:evenodd;clip-rule:evenodd;fill:#666666;}
</style>
<path class="st0" d="M6.4,21.4c1.3,0,2.4,1.1,2.4,2.4s-1.1,2.4-2.4,2.4S4,25.2,4,23.8S5.1,21.4,6.4,21.4L6.4,21.4z M6.4,19.2  c2.6,0,4.6,2.1,4.6,4.6S9,28.5,6.4,28.5s-4.6-2.1-4.6-4.6C1.8,21.3,3.8,19.2,6.4,19.2L6.4,19.2z M10.2,11.6  c-0.1-0.6,0.3-1.1,0.9-1.2s1.1,0.3,1.2,0.9l0.6,4.5l6.1,0l3.1-2.8L19,7.9l-6.7-1.5l-4.6,2l1.7,5.3l1.1,0.7L10.2,11.6L10.2,11.6z   M2.2,18.2h7.5l4,6.6H19l4.6-6.6h1.8H31l-0.6-3.1L24,12.9l-4.1-6.6l-7.8-1.7L5.9,7.4L5.7,7.4l0,0l0,0l0.1,0.3l1.9,5.7l-5.6,1.1  L2.2,18.2L2.2,18.2z M26.6,21.4c1.3,0,2.4,1.1,2.4,2.4s-1.1,2.4-2.4,2.4s-2.4-1.1-2.4-2.4S25.3,21.4,26.6,21.4L26.6,21.4z   M26.6,19.2c2.6,0,4.6,2.1,4.6,4.6s-2.1,4.6-4.6,4.6S22,26.4,22,23.8C22,21.3,24.1,19.2,26.6,19.2L26.6,19.2z"></path>
</svg>
