<?xml version="1.0" encoding="UTF-8"?>
<!-- Generator: Adobe Illustrator 27.3.0, SVG Export Plug-In . SVG Version: 6.00 Build 0)  -->
<svg xmlns="http://www.w3.org/2000/svg" xmlns:xlink="http://www.w3.org/1999/xlink" version="1.1" id="Camada_1" x="0px" y="0px" viewBox="0 0 33 33" style="enable-background:new 0 0 33 33;" xml:space="preserve">
<style type="text/css">
	.st0{fill-rule:evenodd;clip-rule:evenodd;fill:#666666;}
</style>
<path class="st0" d="M22.5,6.4h6c0.7,0,1.3,0.6,1.3,1.3v2.6c0,0.7-0.6,1.3-1.3,1.3h-2.3v14.9h-1.4V11.6h-2.3c-0.7,0-1.3-0.6-1.3-1.3  V7.8C21.2,7,21.8,6.4,22.5,6.4L22.5,6.4z M11.1,8.7l11.6,5.6L22,15.8l-0.6-0.3v11.1h-6v-9h-4.7v9h-6V15.5l-0.7,0.3l-0.8-1.6l7.8-3.8  l-0.6-0.3L11.1,8.7L11.1,8.7z M19.8,14.8l-6.9-3.3l-6.8,3.3v10.5H9V16h7.9v9.1h2.9L19.8,14.8L19.8,14.8z M22.5,7.6  c-0.1,0-0.1,0.1-0.1,0.1v2.6c0,0.1,0.1,0.1,0.1,0.1h6c0.1,0,0.1-0.1,0.1-0.1V7.8c0-0.1-0.1-0.1-0.1-0.1H22.5L22.5,7.6z"></path>
</svg>
