<?xml version="1.0" encoding="UTF-8"?>
<!-- Generator: Adobe Illustrator 27.3.0, SVG Export Plug-In . SVG Version: 6.00 Build 0)  -->
<svg xmlns="http://www.w3.org/2000/svg" xmlns:xlink="http://www.w3.org/1999/xlink" version="1.1" id="Camada_1" x="0px" y="0px" viewBox="0 0 33 33" style="enable-background:new 0 0 33 33;" xml:space="preserve">
<style type="text/css">
	.st0{fill-rule:evenodd;clip-rule:evenodd;fill:#666666;}
</style>
<path class="st0" d="M18.7,19.7L8,26.9c-1.1,0.8-2.7,0.5-3.5-0.7l-0.9-1.4c-0.8-1.1-0.5-2.7,0.7-3.5L15,14.2  c-0.4-2.8,0.8-5.6,3.2-7.2c2.9-1.9,6.4-1.7,9,0.6l-5,3.4c-0.2,0.2-0.3,0.5-0.1,0.8l1.6,2.3c0.2,0.2,0.5,0.3,0.8,0.1l5-3.4  c1.1,3.1-0.1,6.7-2.8,8.6C24.2,21,21.1,21.1,18.7,19.7L18.7,19.7z M18.9,8.1c1.8-1.2,3.9-1.3,5.8-0.6l-3.3,2.2  c-0.9,0.6-1.1,1.8-0.5,2.7l1.6,2.3c0.6,0.9,1.8,1.1,2.7,0.5l3.3-2.2c0,2-0.9,4-2.7,5.2c-2.2,1.5-5.1,1.4-7.1-0.2L7.3,25.8  c-0.5,0.4-1.2,0.2-1.6-0.3l-0.9-1.4c-0.3-0.5-0.2-1.2,0.3-1.6l11.4-7.7C15.8,12.4,16.7,9.6,18.9,8.1L18.9,8.1z"></path>
</svg>
