<?xml version="1.0" encoding="UTF-8"?>
<!-- Generator: Adobe Illustrator 27.3.0, SVG Export Plug-In . SVG Version: 6.00 Build 0)  -->
<svg xmlns="http://www.w3.org/2000/svg" xmlns:xlink="http://www.w3.org/1999/xlink" version="1.1" id="Camada_1" x="0px" y="0px" viewBox="0 0 33 33" style="enable-background:new 0 0 33 33;" xml:space="preserve">
<style type="text/css">
	.st0{fill-rule:evenodd;clip-rule:evenodd;fill:#666666;}
</style>
<path class="st0" d="M1.2,18.7c0,0.6,0,1.3,0,1.9c0.9,0.7,2.8,3.3,7.3,3.3c4.5,0,9.5,0,13.9,0c3.5,0.1,7.2-3.2,8.2-5.1h1.1l0.1-1.5  c-2.7,0-5.3,0-8,0c-2.9,0-3.9,1.5-6.2,1.5C17.6,18.8,1.2,18.7,1.2,18.7L1.2,18.7z M29.6,15.3c-2.6-2.9-4.7-3.5-7.1-3.9  c-0.8-0.7-1.8-1.6-2.6-2.3c-1,0.3-2,0.6-3,0.9c0.1,0.5,0.3,1,0.4,1.4c0.7-0.2,1.4-0.3,2.1-0.5c0.3,0.3,0.7,0.6,1,0.9  c-1.2,0.6-2.3,1.1-3.5,1.7C15.2,14,13.7,14,12.3,14l-7.3-1.4l-0.6,1.8l2.9,1c-1.1,0.3-2.6,1.3-3,2.1c3.7,0,7.8,0,11.5,0  c4.2,0,4.9-2.1,7.6-2.1c2.1,0,4.3,0,6.5,0L29.6,15.3L29.6,15.3z"></path>
</svg>
