<?xml version="1.0" encoding="UTF-8"?>
<!-- Generator: Adobe Illustrator 27.3.0, SVG Export Plug-In . SVG Version: 6.00 Build 0)  -->
<svg xmlns="http://www.w3.org/2000/svg" xmlns:xlink="http://www.w3.org/1999/xlink" version="1.1" id="Camada_1" x="0px" y="0px" viewBox="0 0 33 33" style="enable-background:new 0 0 33 33;" xml:space="preserve">
<style type="text/css">
	.st0{fill-rule:evenodd;clip-rule:evenodd;fill:#666666;}
</style>
<path class="st0" d="M29.6,18v-2.3l-1.3-0.8c-0.1-0.7-0.3-1.4-0.6-2.1l0.8-1.3l-1.1-2h-1.5c-0.5-0.6-1-1.1-1.6-1.6V6.4l-2-1.1  L20.9,6c-0.7-0.3-1.4-0.4-2.1-0.6L18,4.1h-2.3L15,5.4c-0.7,0.1-1.4,0.3-2.1,0.6l-1.3-0.8l-2,1.1v1.5C9,8.4,8.5,8.9,8,9.5H6.4l-1.1,2  l0.8,1.3c-0.3,0.7-0.4,1.4-0.6,2.1l-1.3,0.8V18l1.3,0.8c0.1,0.7,0.3,1.4,0.6,2.1l-0.8,1.3l1.1,2H8c0.5,0.6,1,1.1,1.6,1.6v1.5l2,1.1  l1.3-0.8c0.7,0.3,1.4,0.4,2.1,0.6l0.8,1.3H18l0.8-1.3c0.7-0.1,1.4-0.3,2.1-0.6l1.3,0.8l2-1.1v-1.5c0.6-0.5,1.1-1,1.6-1.6h1.5l1.1-2  l-0.8-1.3c0.3-0.7,0.4-1.4,0.6-2.1L29.6,18L29.6,18z M24.7,16.8c0,4.3-3.5,7.8-7.8,7.8s-7.8-3.5-7.8-7.8c0-4.3,3.5-7.8,7.8-7.8  S24.7,12.5,24.7,16.8L24.7,16.8z M16.9,9c-4.3,0-7.8,3.5-7.8,7.8c0,4.3,3.5,7.8,7.8,7.8c4.3,0,7.8-3.5,7.8-7.8  C24.7,12.5,21.2,9,16.9,9L16.9,9z M16.9,24.7c-4.3,0-7.8-3.5-7.8-7.8C9,12.5,12.6,9,16.9,9c4.3,0,7.8,3.5,7.8,7.8  C24.7,21.1,21.2,24.7,16.9,24.7L16.9,24.7z M15.9,10.4c-1.9,0-3.5,1-4.4,2.6l3,1.7c0.6,0.4,1.4-0.1,1.4-0.8V10.4L15.9,10.4z   M10.8,14.5c-0.9,1.6-0.9,3.6,0,5.1l3-1.7c0.6-0.4,0.6-1.3,0-1.6L10.8,14.5L10.8,14.5z M11.8,20.9c0.9,1.6,2.7,2.6,4.4,2.6V20  c0-0.7-0.8-1.2-1.4-0.8L11.8,20.9L11.8,20.9z M17.9,23.2c1.9,0,3.5-1,4.4-2.6l-3-1.7c-0.6-0.4-1.4,0.1-1.4,0.8V23.2L17.9,23.2z   M22.9,19.2c0.9-1.6,0.9-3.6,0-5.1l-3,1.7c-0.6,0.4-0.6,1.3,0,1.6L22.9,19.2L22.9,19.2z M21.9,12.8c-0.9-1.6-2.7-2.6-4.4-2.6v3.5  c0,0.7,0.8,1.2,1.4,0.8L21.9,12.8L21.9,12.8z M18.9,16.8c0,1.1-0.9,2-2,2c-1.1,0-2-0.9-2-2c0-1.1,0.9-2,2-2  C18,14.8,18.9,15.7,18.9,16.8L18.9,16.8z"></path>
</svg>
